<?xml version="1.0" encoding="UTF-8" standalone="no"?>
<svg
   xmlns:dc="http://purl.org/dc/elements/1.1/"
   xmlns:cc="http://creativecommons.org/ns#"
   xmlns:rdf="http://www.w3.org/1999/02/22-rdf-syntax-ns#"
   xmlns:svg="http://www.w3.org/2000/svg"
   xmlns="http://www.w3.org/2000/svg"
   xmlns:sodipodi="http://sodipodi.sourceforge.net/DTD/sodipodi-0.dtd"
   xmlns:inkscape="http://www.inkscape.org/namespaces/inkscape"
   height="297mm"
   version="1.1"
   viewBox="0 0 210 297"
   width="210mm"
   id="svg4515"
   sodipodi:docname="1.svg"
   inkscape:version="0.92.1 r15371">
  <metadata
     id="metadata4519">
    <rdf:RDF>
      <cc:Work
         rdf:about="">
        <dc:format>image/svg+xml</dc:format>
        <dc:type
           rdf:resource="http://purl.org/dc/dcmitype/StillImage" />
        <dc:title></dc:title>
      </cc:Work>
    </rdf:RDF>
  </metadata>
  <sodipodi:namedview
     pagecolor="#ffffff"
     bordercolor="#666666"
     borderopacity="1"
     objecttolerance="10"
     gridtolerance="10"
     guidetolerance="10"
     inkscape:pageopacity="0"
     inkscape:pageshadow="2"
     inkscape:window-width="1600"
     inkscape:window-height="845"
     id="namedview4517"
     showgrid="false"
     inkscape:zoom="1.1616723"
     inkscape:cx="118.65753"
     inkscape:cy="1008.8904"
     inkscape:window-x="0"
     inkscape:window-y="27"
     inkscape:window-maximized="1"
     inkscape:current-layer="svg4515" />
  <defs
     id="defs4485" />
  <path
     style="fill:none;stroke-width:0.1;stroke-miterlimit:4;stroke-dasharray:none;stroke:#000000;stroke-opacity:1"
     d="M 4.7498053,2.2499189e-4 A 4.75,4.75 0 0 0 2.2499189e-4,4.7498053 V 87.250195 A 4.75,4.75 0 0 0 4.7498053,91.999775 H 87.250195 a 4.75,4.75 0 0 0 4.74958,-4.74958 V 4.7498053 A 4.75,4.75 0 0 0 87.250195,2.2499189e-4 Z m 0,3.24993000811 A 1.4999999,1.4999999 0 0 1 6.2499716,4.7498053 1.4999999,1.4999999 0 0 1 4.7498053,6.2499716 1.4999999,1.4999999 0 0 1 3.250155,4.7498053 1.4999999,1.4999999 0 0 1 4.7498053,3.250155 Z m 82.5003897,0 a 1.4999999,1.4999999 0 0 1 1.49965,1.4996503 1.4999999,1.4999999 0 0 1 -1.49965,1.5001663 A 1.4999999,1.4999999 0 0 1 85.750029,4.7498053 1.4999999,1.4999999 0 0 1 87.250195,3.250155 Z M 9.4999042,4.7498053 H 82.500096 a 4.75,4.75 0 0 0 4.750099,4.7500989 V 82.500096 a 4.75,4.75 0 0 0 -4.750099,4.750099 H 9.4999042 A 4.75,4.75 0 0 0 4.7498053,82.500096 V 9.4999042 A 4.75,4.75 0 0 0 9.4999042,4.7498053 Z M 4.7498053,85.750029 a 1.5,1.5 0 0 1 1.5001663,1.500166 1.5,1.5 0 0 1 -1.5001663,1.49965 1.5,1.5 0 0 1 -1.4996503,-1.49965 1.5,1.5 0 0 1 1.4996503,-1.500166 z m 82.5003897,0 a 1.4999999,1.4999999 0 0 1 1.49965,1.500166 1.4999999,1.4999999 0 0 1 -1.49965,1.49965 1.4999999,1.4999999 0 0 1 -1.500166,-1.49965 1.4999999,1.4999999 0 0 1 1.500166,-1.500166 z"
     id="rect4487"
     inkscape:connector-curvature="0" />
</svg>
