<?xml version="1.0" encoding="UTF-8" standalone="no"?>
<svg
   xmlns:dc="http://purl.org/dc/elements/1.1/"
   xmlns:cc="http://creativecommons.org/ns#"
   xmlns:rdf="http://www.w3.org/1999/02/22-rdf-syntax-ns#"
   xmlns:svg="http://www.w3.org/2000/svg"
   xmlns="http://www.w3.org/2000/svg"
   xmlns:sodipodi="http://sodipodi.sourceforge.net/DTD/sodipodi-0.dtd"
   xmlns:inkscape="http://www.inkscape.org/namespaces/inkscape"
   height="297mm"
   version="1.1"
   viewBox="0 0 210 297"
   width="210mm"
   id="svg4523"
   sodipodi:docname="2.svg"
   inkscape:version="0.92.1 r15371">
  <metadata
     id="metadata4527">
    <rdf:RDF>
      <cc:Work
         rdf:about="">
        <dc:format>image/svg+xml</dc:format>
        <dc:type
           rdf:resource="http://purl.org/dc/dcmitype/StillImage" />
        <dc:title />
      </cc:Work>
    </rdf:RDF>
  </metadata>
  <sodipodi:namedview
     pagecolor="#ffffff"
     bordercolor="#666666"
     borderopacity="1"
     objecttolerance="10"
     gridtolerance="10"
     guidetolerance="10"
     inkscape:pageopacity="0"
     inkscape:pageshadow="2"
     inkscape:window-width="1600"
     inkscape:window-height="845"
     id="namedview4525"
     showgrid="false"
     inkscape:zoom="1.1616723"
     inkscape:cx="151.75415"
     inkscape:cy="733.42548"
     inkscape:window-x="0"
     inkscape:window-y="27"
     inkscape:window-maximized="1"
     inkscape:current-layer="svg4523" />
  <defs
     id="defs4485" />
  <path
     style="fill:none;stroke-width:0.1;stroke:#000000;stroke-opacity:1;stroke-miterlimit:4;stroke-dasharray:none"
     d="M 4.7499938,-1.0512033e-4 A 4.75,4.75 0 0 0 -1.0512033e-4,4.7499938 V 127.25001 A 4.75,4.75 0 0 0 4.7499938,132.00011 H 127.25001 a 4.75,4.75 0 0 0 4.7501,-4.7501 V 4.7499938 a 4.75,4.75 0 0 0 -4.7501,-4.75009892033 z M 24.749805,23.250155 a 1.4999999,1.4999999 0 0 1 1.500167,1.49965 1.4999999,1.4999999 0 0 1 -1.500167,1.500167 1.4999999,1.4999999 0 0 1 -1.49965,-1.500167 1.4999999,1.4999999 0 0 1 1.49965,-1.49965 z m 82.500385,0 a 1.4999999,1.4999999 0 0 1 1.49966,1.49965 1.4999999,1.4999999 0 0 1 -1.49966,1.500167 1.4999999,1.4999999 0 0 1 -1.50016,-1.500167 1.4999999,1.4999999 0 0 1 1.50016,-1.49965 z m -77.750286,1.49965 H 102.5001 a 4.75,4.75 0 0 0 4.75009,4.750099 V 102.5001 a 4.75,4.75 0 0 0 -4.75009,4.75009 H 29.499904 A 4.75,4.75 0 0 0 24.749805,102.5001 V 29.499904 a 4.75,4.75 0 0 0 4.750099,-4.750099 z m -4.750099,81.000225 a 1.4999999,1.4999999 0 0 1 1.500167,1.50016 1.4999999,1.4999999 0 0 1 -1.500167,1.49966 1.4999999,1.4999999 0 0 1 -1.49965,-1.49966 1.4999999,1.4999999 0 0 1 1.49965,-1.50016 z m 82.500385,0 a 1.5,1.5 0 0 1 1.49966,1.50016 1.5,1.5 0 0 1 -1.49966,1.49966 1.5,1.5 0 0 1 -1.50016,-1.49966 1.5,1.5 0 0 1 1.50016,-1.50016 z"
     id="rect4487"
     inkscape:connector-curvature="0" />
</svg>
